<svg viewBox="0 0 32 32" xmlns="http://www.w3.org/2000/svg" xmlns:xlink="http://www.w3.org/1999/xlink"><style>:root&gt;svg{display:none}:root&gt;svg:target{display:block}</style><svg viewBox="0 0 32 32" fill="none" id="sprite--logo" xmlns="http://www.w3.org/2000/svg"><path fill-rule="evenodd" clip-rule="evenodd" d="M3.758 1.735c-1.104-.673-2.48.292-2.48 1.954v9.97c0 .417-.286.755-.64.755-.352 0-.638-.338-.638-.755V3.69C0 1.016 2.302-.85 4.344.394l8.632 5.259c.314.19.437.646.275 1.016-.162.37-.547.515-.86.324L3.757 1.735zM15.64 12.43c0-2.35-1.974-4.048-3.822-3.068L1.646 14.859l-.002.001C.634 15.397 0 16.611 0 17.928v10.72c0 2.348 1.968 4.044 3.814 3.073l10.174-5.054.007-.004c1.01-.536 1.645-1.75 1.645-3.069V12.43zm-3.298-1.692l.002-.001c.916-.484 2.018.326 2.019 1.694v11.163c0 .752-.36 1.407-.886 1.69L3.305 30.337l-.007.004c-.917.486-2.02-.324-2.02-1.693v-10.72c0-.755.363-1.412.892-1.693l10.172-5.497zM2.61 18.62c-.323-.168-.47-.613-.328-.994.142-.382.52-.555.842-.387l9.912 5.151c.323.168.47.613.328.995-.143.38-.52.554-.843.386l-9.911-5.15zm15.028-6.19c0-1.368 1.1-2.178 2.018-1.694l.002.001 10.168 5.495.005.003c.528.28.891.938.891 1.693v3.18c0 .417.286.755.639.755.353 0 .639-.338.639-.754v-3.181c0-1.317-.634-2.531-1.644-3.068l-.002-.002-10.169-5.495-.004-.002c-1.848-.98-3.821.718-3.821 3.07v11.162c0 1.319.635 2.533 1.646 3.07l.007.003 10.173 5.054c1.846.971 3.814-.725 3.814-3.073v-.433c0-.416-.286-.754-.639-.754-.353 0-.639.338-.639.754v.433c0 1.37-1.102 2.18-2.02 1.693l-.007-.004-10.172-5.053c-.525-.282-.885-.937-.885-1.69V12.431zM27.656.41C29.698-.835 32 1.031 32 3.704v9.97c0 .416-.286.754-.639.754-.353 0-.639-.338-.639-.755V3.705c0-1.662-1.376-2.627-2.48-1.954L19.61 7.009c-.314.19-.7.045-.861-.325-.162-.37-.039-.825.275-1.016L27.656.409zm1.735 18.212c.323-.168.47-.613.328-.994-.143-.381-.52-.554-.843-.386l-9.911 5.15c-.323.169-.47.614-.328.995.142.381.52.554.842.387l9.912-5.152z" fill="#E6E5E1"/></svg></svg>