<svg id="logo" viewBox="0 0 32 32" fill="none" xmlns="http://www.w3.org/2000/svg">
  <path id="logo" fill-rule="evenodd" clip-rule="evenodd" d="M3.75791 1.73472C2.65404 1.06212 1.27778 2.0271 1.27778 3.68935V13.6593C1.27778 14.0758 0.99174 14.4135 0.638891 14.4135C0.286041 14.4135 0 14.0758 0 13.6593V3.68935C0 1.01581 2.30195 -0.850001 4.34388 0.394119L12.9762 5.65284C13.2898 5.84386 13.4128 6.29882 13.251 6.66902C13.0892 7.03923 12.7038 7.18449 12.3903 6.99346L3.75791 1.73472ZM15.6403 12.4304C15.6394 10.0797 13.6657 8.38208 11.8184 9.36185L1.64623 14.8592L1.644 14.8604C0.634049 15.3971 0.000405688 16.6112 0.000405688 17.9282V28.648C0.000405688 30.9959 1.96833 32.692 3.81414 31.7208L13.9876 26.6669L13.9945 26.6632C15.0057 26.1271 15.6403 24.9122 15.6403 23.5942V12.4304ZM12.342 10.7379L12.3438 10.737C13.2601 10.2528 14.362 11.0627 14.3625 12.4311V23.5942C14.3625 24.3462 14.0025 25.0015 13.4773 25.2837L3.30502 30.3371L3.2981 30.3407C2.38053 30.8271 1.27819 30.0169 1.27819 28.648V17.9282C1.27819 17.1731 1.64103 16.5157 2.16968 16.2354L12.342 10.7379ZM2.60964 18.6208C2.2867 18.453 2.14015 18.0078 2.28231 17.6265C2.42447 17.2452 2.80152 17.0722 3.12446 17.2401L13.0362 22.3914C13.3592 22.5593 13.5057 23.0044 13.3636 23.3856C13.2214 23.7669 12.8443 23.94 12.5214 23.7721L2.60964 18.6208ZM17.6378 12.4311C17.6378 11.0632 18.7386 10.253 19.6558 10.7373L19.6577 10.7383L29.8264 16.2335L29.8307 16.2357C30.3593 16.516 30.7221 17.1738 30.7221 17.9287V21.1099C30.7221 21.5265 31.0082 21.8642 31.361 21.8642C31.7139 21.8642 31.9999 21.5265 31.9999 21.1099V17.9285C31.9999 16.6115 31.3663 15.3975 30.3563 14.8607L30.3541 14.8595L20.1853 9.36436L20.1811 9.36209C18.3332 8.38248 16.36 10.0801 16.36 12.4311V23.5945C16.36 24.9125 16.9946 26.1274 18.0059 26.6635L18.0128 26.6672L28.1862 31.7212C30.032 32.6924 31.9999 30.9962 31.9999 28.6483V28.2152C31.9999 27.7987 31.7139 27.4609 31.361 27.4609C31.0082 27.4609 30.7221 27.7987 30.7221 28.2152V28.6483C30.7221 30.0172 29.6198 30.8275 28.7022 30.341L28.6953 30.3374L18.523 25.284C17.9978 25.0018 17.6378 24.3466 17.6378 23.5945V12.4311ZM27.6562 0.409197C29.698 -0.834923 32 1.03088 32 3.70443V13.6735C32 14.09 31.714 14.4278 31.3611 14.4278C31.0083 14.4278 30.7222 14.09 30.7222 13.6735V3.70443C30.7222 2.04218 29.346 1.07719 28.2421 1.7498L19.6098 7.00854C19.2962 7.19957 18.9108 7.05431 18.749 6.68411C18.5872 6.3139 18.7102 5.85894 19.0238 5.66792L27.6562 0.409197ZM29.3912 18.6212C29.7141 18.4534 29.8606 18.0082 29.7185 17.6269C29.5763 17.2456 29.1993 17.0726 28.8763 17.2405L18.9646 22.3918C18.6417 22.5597 18.4951 23.0048 18.6373 23.386C18.7794 23.7673 19.1565 23.9404 19.4794 23.7725L29.3912 18.6212Z" fill="#E6E5E1" />
</svg>